<svg xmlns="http://www.w3.org/2000/svg" width="31.001" height="19" viewBox="0 0 31.001 19"><defs><style>.a{fill:#fff;}</style></defs><path class="a" d="M-199.708-1701a1.243,1.243,0,0,1-1.292-1.187,1.244,1.244,0,0,1,1.292-1.188h21.958a1.243,1.243,0,0,1,1.291,1.188A1.243,1.243,0,0,1-177.75-1701Zm-.1-8.312A1.188,1.188,0,0,1-201-1710.5a1.188,1.188,0,0,1,1.188-1.188h28.624A1.188,1.188,0,0,1-170-1710.5a1.188,1.188,0,0,1-1.188,1.187Zm0-8.312a1.188,1.188,0,0,1-1.188-1.188,1.188,1.188,0,0,1,1.188-1.187h28.624a1.188,1.188,0,0,1,1.188,1.187,1.188,1.188,0,0,1-1.188,1.188Z" transform="translate(201.001 1720)"/></svg>